<?xml version="1.0" encoding="us-ascii" standalone="no"?><svg xmlns="http://www.w3.org/2000/svg" xmlns:xlink="http://www.w3.org/1999/xlink" contentStyleType="text/css" height="482px" preserveAspectRatio="none" style="width:819px;height:482px;background:#FFFFFF;" version="1.1" viewBox="0 0 819 482" width="819px" zoomAndPan="magnify"><defs/><g><!--cluster App--><g id="cluster_App"><rect fill="none" height="113" rx="2.5" ry="2.5" style="stroke:#181818;stroke-width:1.0;" width="243" x="317.5" y="7"/><text fill="#000000" font-family="sans-serif" font-size="14" font-weight="bold" lengthAdjust="spacing" textLength="134" x="372" y="21.9951">2060 Mobile App</text></g><!--cluster Government Citizen Registry--><g id="cluster_Government Citizen Registry"><rect fill="none" height="324" rx="2.5" ry="2.5" style="stroke:#181818;stroke-width:1.0;" width="541" x="85.5" y="152"/><text fill="#000000" font-family="sans-serif" font-size="14" font-weight="bold" lengthAdjust="spacing" textLength="233" x="239.5" y="166.9951">Government Citizen Registry</text></g><!--entity MA--><g id="elem_MA"><rect fill="#F1F1F1" height="46.2969" rx="2.5" ry="2.5" style="stroke:#181818;stroke-width:0.5;" width="175" x="361" y="50"/><rect fill="#F1F1F1" height="10" style="stroke:#181818;stroke-width:0.5;" width="15" x="516" y="55"/><rect fill="#F1F1F1" height="2" style="stroke:#181818;stroke-width:0.5;" width="4" x="514" y="57"/><rect fill="#F1F1F1" height="2" style="stroke:#181818;stroke-width:0.5;" width="4" x="514" y="61"/><text fill="#000000" font-family="sans-serif" font-size="14" lengthAdjust="spacing" textLength="135" x="376" y="82.9951">2060 Mobile Agent</text></g><!--entity VS--><g id="elem_VS"><rect fill="#F1F1F1" height="46.2969" rx="2.5" ry="2.5" style="stroke:#181818;stroke-width:0.5;" width="180" x="396.5" y="187"/><rect fill="#F1F1F1" height="10" style="stroke:#181818;stroke-width:0.5;" width="15" x="556.5" y="192"/><rect fill="#F1F1F1" height="2" style="stroke:#181818;stroke-width:0.5;" width="4" x="554.5" y="194"/><rect fill="#F1F1F1" height="2" style="stroke:#181818;stroke-width:0.5;" width="4" x="554.5" y="198"/><text fill="#000000" font-family="sans-serif" font-size="14" lengthAdjust="spacing" textLength="140" x="411.5" y="219.9951">2060 Service Agent</text></g><!--entity DS--><g id="elem_DS"><rect fill="#F1F1F1" height="46.2969" rx="2.5" ry="2.5" style="stroke:#181818;stroke-width:0.5;" width="157" x="102" y="308"/><rect fill="#F1F1F1" height="10" style="stroke:#181818;stroke-width:0.5;" width="15" x="239" y="313"/><rect fill="#F1F1F1" height="2" style="stroke:#181818;stroke-width:0.5;" width="4" x="237" y="315"/><rect fill="#F1F1F1" height="2" style="stroke:#181818;stroke-width:0.5;" width="4" x="237" y="319"/><text fill="#000000" font-family="sans-serif" font-size="14" lengthAdjust="spacing" textLength="117" x="117" y="340.9951">2060 Data Store</text></g><!--entity PS--><g id="elem_PS"><rect fill="#F1F1F1" height="46.2969" rx="2.5" ry="2.5" style="stroke:#181818;stroke-width:0.5;" width="103" x="277" y="414"/><rect fill="#F1F1F1" height="10" style="stroke:#181818;stroke-width:0.5;" width="15" x="360" y="419"/><rect fill="#F1F1F1" height="2" style="stroke:#181818;stroke-width:0.5;" width="4" x="358" y="421"/><rect fill="#F1F1F1" height="2" style="stroke:#181818;stroke-width:0.5;" width="4" x="358" y="425"/><text fill="#000000" font-family="sans-serif" font-size="14" lengthAdjust="spacing" textLength="63" x="292" y="446.9951">Postgres</text></g><!--entity AA--><g id="elem_AA"><rect fill="#F1F1F1" height="46.2969" rx="2.5" ry="2.5" style="stroke:#181818;stroke-width:0.5;" width="155" x="415" y="414"/><rect fill="#F1F1F1" height="10" style="stroke:#181818;stroke-width:0.5;" width="15" x="550" y="419"/><rect fill="#F1F1F1" height="2" style="stroke:#181818;stroke-width:0.5;" width="4" x="548" y="421"/><rect fill="#F1F1F1" height="2" style="stroke:#181818;stroke-width:0.5;" width="4" x="548" y="425"/><text fill="#000000" font-family="sans-serif" font-size="14" lengthAdjust="spacing" textLength="115" x="430" y="446.9951">Apache Artemis</text></g><!--entity GAIA--><g id="elem_GAIA"><rect fill="#F1F1F1" height="46.2969" rx="2.5" ry="2.5" style="stroke:#181818;stroke-width:0.5;" width="316" x="294.5" y="308"/><rect fill="#F1F1F1" height="10" style="stroke:#181818;stroke-width:0.5;" width="15" x="590.5" y="313"/><rect fill="#F1F1F1" height="2" style="stroke:#181818;stroke-width:0.5;" width="4" x="588.5" y="315"/><rect fill="#F1F1F1" height="2" style="stroke:#181818;stroke-width:0.5;" width="4" x="588.5" y="319"/><text fill="#000000" font-family="sans-serif" font-size="14" lengthAdjust="spacing" textLength="276" x="309.5" y="340.9951">Government Citizen Registry Backend</text></g><!--entity VISION--><g id="elem_VISION"><rect fill="#F1F1F1" height="46.2969" rx="2.5" ry="2.5" style="stroke:#181818;stroke-width:0.5;" width="147" x="214" y="187"/><rect fill="#F1F1F1" height="10" style="stroke:#181818;stroke-width:0.5;" width="15" x="341" y="192"/><rect fill="#F1F1F1" height="2" style="stroke:#181818;stroke-width:0.5;" width="4" x="339" y="194"/><rect fill="#F1F1F1" height="2" style="stroke:#181818;stroke-width:0.5;" width="4" x="339" y="198"/><text fill="#000000" font-family="sans-serif" font-size="14" lengthAdjust="spacing" textLength="107" x="229" y="219.9951">Vision Services</text></g><!--entity Enduser--><g id="elem_Enduser"><ellipse cx="37.5" cy="180.5" fill="#F1F1F1" rx="8" ry="8" style="stroke:#181818;stroke-width:0.5;"/><path d="M37.5,188.5 L37.5,215.5 M24.5,196.5 L50.5,196.5 M37.5,215.5 L24.5,230.5 M37.5,215.5 L50.5,230.5 " fill="none" style="stroke:#181818;stroke-width:0.5;"/><text fill="#000000" font-family="sans-serif" font-size="14" lengthAdjust="spacing" textLength="63" x="6" y="244.9951">End-user</text></g><!--entity CA--><g id="elem_CA"><rect fill="#F1F1F1" height="46.2969" rx="2.5" ry="2.5" style="stroke:#181818;stroke-width:0.5;" width="167" x="646" y="308"/><rect fill="#F1F1F1" height="10" style="stroke:#181818;stroke-width:0.5;" width="15" x="793" y="313"/><rect fill="#F1F1F1" height="2" style="stroke:#181818;stroke-width:0.5;" width="4" x="791" y="315"/><rect fill="#F1F1F1" height="2" style="stroke:#181818;stroke-width:0.5;" width="4" x="791" y="319"/><text fill="#000000" font-family="sans-serif" font-size="14" lengthAdjust="spacing" textLength="127" x="661" y="340.9951">2060 Cloud Agent</text></g><!--link MA to VS--><g id="link_MA_VS"><path d="M454.775,96.293 C461.816,121.306 471.5451,155.8725 478.5901,180.8985 " fill="none" id="MA-to-VS" style="stroke:#181818;stroke-width:1.0;"/><polygon fill="#181818" points="480.216,186.674,481.6276,176.9268,478.8611,181.8611,473.9269,179.0946,480.216,186.674" style="stroke:#181818;stroke-width:1.0;"/></g><!--link App to VISION--><g id="link_App_VISION"><path d="M317.4509,102.5956 C317.4059,102.7555 317.3608,102.9159 317.3155,103.0767 C317.1344,103.7199 316.9514,104.3702 316.7665,105.027 C316.3968,106.3406 316.0196,107.6806 315.6359,109.0437 C314.8686,111.77 314.0751,114.589 313.2626,117.4754 C306.763,140.5665 300.6748,162.196 295.3928,180.9605 " fill="none" id="App-to-VISION" style="stroke:#181818;stroke-width:1.0;"/><polygon fill="#181818" points="293.767,186.736,300.056,179.1565,295.1218,181.923,292.3553,176.9888,293.767,186.736" style="stroke:#181818;stroke-width:1.0;"/></g><!--link VISION to GAIA--><g id="link_VISION_GAIA"><path d="M318.149,233.104 C347.692,254.411 387.2876,282.9683 416.8696,304.3033 " fill="none" id="VISION-to-GAIA" style="stroke:#181818;stroke-width:1.0;"/><polygon fill="#181818" points="421.736,307.813,416.7762,299.3041,417.6807,304.8882,412.0966,305.7927,421.736,307.813" style="stroke:#181818;stroke-width:1.0;"/></g><!--link VISION to DS--><g id="link_VISION_DS"><path d="M267.625,233.104 C248.527,254.344 223.8267,281.8133 204.6437,303.1483 " fill="none" id="VISION-to-DS" style="stroke:#181818;stroke-width:1.0;"/><polygon fill="#181818" points="200.632,307.61,209.6239,303.5919,203.975,303.8919,203.675,298.243,200.632,307.61" style="stroke:#181818;stroke-width:1.0;"/></g><!--link App to Enduser--><g id="link_App_Enduser"><path d="M311.4788,74.9471 C306.887,75.2861 306.4586,75.3871 298.6113,76.228 C282.9166,77.9099 261.4806,80.7849 237.3832,85.6093 C189.1885,95.258 130.348,112.7045 85.5,144 C75.0312,151.305 69.4371,156.7546 62.0668,167.0296 " fill="none" id="App-Enduser" style="stroke:#181818;stroke-width:1.0;"/><polygon fill="#181818" points="317.4625,74.5054,308.1924,71.1789,312.476,74.8735,308.7814,79.1572,317.4625,74.5054" style="stroke:#181818;stroke-width:1.0;"/><polygon fill="#181818" points="58.5696,171.905,67.0656,166.9233,61.4839,167.8421,60.5651,162.2604,58.5696,171.905" style="stroke:#181818;stroke-width:1.0;"/></g><!--link VS to GAIA--><g id="link_VS_GAIA"><path d="M478.5366,238.8731 C472.4676,260.1131 466.6414,280.5059 460.5454,301.8409 " fill="none" id="VS-GAIA" style="stroke:#181818;stroke-width:1.0;"/><polygon fill="#181818" points="480.185,233.104,473.8663,240.6587,478.8113,237.9116,481.5584,242.8566,480.185,233.104" style="stroke:#181818;stroke-width:1.0;"/><polygon fill="#181818" points="458.897,307.61,465.2157,300.0552,460.2707,302.8024,457.5235,297.8574,458.897,307.61" style="stroke:#181818;stroke-width:1.0;"/></g><!--link VS to CA--><g id="link_VS_CA"><path d="M531.637,233.104 C575.146,254.411 635.2385,283.8391 678.8045,305.1741 " fill="none" id="VS-to-CA" style="stroke:#181818;stroke-width:1.0;"/><polygon fill="#181818" points="684.193,307.813,677.8694,300.2623,679.7025,305.6139,674.3509,307.4471,684.193,307.813" style="stroke:#181818;stroke-width:1.0;"/></g><!--reverse link MA to CA--><g id="link_MA_CA"><path d="M541.8124,97.0755 C572.9454,107.8265 600.908,121.56 626.5,144 C678.955,189.995 710.098,269.456 722.806,307.899 " fill="none" id="MA-backto-CA" style="stroke:#181818;stroke-width:1.0;"/><polygon fill="#181818" points="536.141,95.117,543.3424,101.8356,540.8671,96.7491,545.9537,94.2738,536.141,95.117" style="stroke:#181818;stroke-width:1.0;"/></g><!--link GAIA to PS--><g id="link_GAIA_PS"><path d="M426.203,354.056 C405.16,371.705 380.3902,392.4797 359.3562,410.1205 " fill="none" id="GAIA-to-PS" style="stroke:#181818;stroke-width:1.0;"/><polygon fill="#181818" points="354.759,413.9761,364.2252,411.2575,358.59,410.7631,359.0844,405.1279,354.759,413.9761" style="stroke:#181818;stroke-width:1.0;"/></g><!--link GAIA to AA--><g id="link_GAIA_AA"><path d="M460.983,354.056 C467.771,371.705 475.0901,390.7352 481.8751,408.376 " fill="none" id="GAIA-to-AA" style="stroke:#181818;stroke-width:1.0;"/><polygon fill="#181818" points="484.029,413.9761,484.5315,404.1401,482.2341,409.3094,477.0648,407.0119,484.029,413.9761" style="stroke:#181818;stroke-width:1.0;"/></g><!--SRC=[VP6nQiCm48PtFSNXtH0wT2e1rIx1WvjGWPVGGRKFLpIHZAG4sj9tyRFuoNgIx18ldNJ__Ry_tLcozSPEO_Qak_pYq6RJADqqaWoAiUFTvdu3nSbSEk0zQlyAqa716RFOUgdx4q8MCxLvKoJuC6GXGYTyCu3Zoeo4T4NDsGzRONRcYbQVAGA5ykeBDRnWhvotdrbaBJI1zghQDQuHDu5IUWc2DiFPBMVtO9plBRgunM5kya6sxqIp7iygMPmdwv-Hu56s7wYxcD_nQlwYKKuPlOoOQ4qbglrpMBVcaETRe673_ubbyj8HEv5reyiKVWZryYwDI3fbHSpHen2Usg4AHkpIadyrvxy0]--></g></svg>