<?xml version="1.0" encoding="us-ascii" standalone="no"?><svg xmlns="http://www.w3.org/2000/svg" xmlns:xlink="http://www.w3.org/1999/xlink" contentStyleType="text/css" height="482px" preserveAspectRatio="none" style="width:793px;height:482px;background:#FFFFFF;" version="1.1" viewBox="0 0 793 482" width="793px" zoomAndPan="magnify"><defs/><g><!--cluster App--><g id="cluster_App"><rect fill="none" height="113" rx="2.5" ry="2.5" style="stroke:#181818;stroke-width:1.0;" width="259" x="259.5" y="7"/><text fill="#000000" font-family="sans-serif" font-size="14" font-weight="bold" lengthAdjust="spacing" textLength="243" x="267.5" y="21.9951">Hologram Wallet &amp; Messenger</text></g><!--cluster Government Citizen Registry Service--><g id="cluster_Government Citizen Registry Service"><rect fill="none" height="324" rx="2.5" ry="2.5" style="stroke:#181818;stroke-width:1.0;" width="518" x="85.5" y="152"/><text fill="#000000" font-family="sans-serif" font-size="14" font-weight="bold" lengthAdjust="spacing" textLength="296" x="196.5" y="166.9951">Government Citizen Registry Service</text></g><!--entity MA--><g id="elem_MA"><rect fill="#F1F1F1" height="46.2969" rx="2.5" ry="2.5" style="stroke:#181818;stroke-width:0.5;" width="175" x="319" y="50"/><rect fill="#F1F1F1" height="10" style="stroke:#181818;stroke-width:0.5;" width="15" x="474" y="55"/><rect fill="#F1F1F1" height="2" style="stroke:#181818;stroke-width:0.5;" width="4" x="472" y="57"/><rect fill="#F1F1F1" height="2" style="stroke:#181818;stroke-width:0.5;" width="4" x="472" y="61"/><text fill="#000000" font-family="sans-serif" font-size="14" lengthAdjust="spacing" textLength="135" x="334" y="82.9951">2060 Mobile Agent</text></g><!--entity VS--><g id="elem_VS"><rect fill="#F1F1F1" height="46.2969" rx="2.5" ry="2.5" style="stroke:#181818;stroke-width:0.5;" width="180" x="346.5" y="187"/><rect fill="#F1F1F1" height="10" style="stroke:#181818;stroke-width:0.5;" width="15" x="506.5" y="192"/><rect fill="#F1F1F1" height="2" style="stroke:#181818;stroke-width:0.5;" width="4" x="504.5" y="194"/><rect fill="#F1F1F1" height="2" style="stroke:#181818;stroke-width:0.5;" width="4" x="504.5" y="198"/><text fill="#000000" font-family="sans-serif" font-size="14" lengthAdjust="spacing" textLength="140" x="361.5" y="219.9951">2060 Service Agent</text></g><!--entity DS--><g id="elem_DS"><rect fill="#F1F1F1" height="46.2969" rx="2.5" ry="2.5" style="stroke:#181818;stroke-width:0.5;" width="157" x="102" y="414"/><rect fill="#F1F1F1" height="10" style="stroke:#181818;stroke-width:0.5;" width="15" x="239" y="419"/><rect fill="#F1F1F1" height="2" style="stroke:#181818;stroke-width:0.5;" width="4" x="237" y="421"/><rect fill="#F1F1F1" height="2" style="stroke:#181818;stroke-width:0.5;" width="4" x="237" y="425"/><text fill="#000000" font-family="sans-serif" font-size="14" lengthAdjust="spacing" textLength="117" x="117" y="446.9951">2060 Data Store</text></g><!--entity PS--><g id="elem_PS"><rect fill="#F1F1F1" height="46.2969" rx="2.5" ry="2.5" style="stroke:#181818;stroke-width:0.5;" width="103" x="294" y="414"/><rect fill="#F1F1F1" height="10" style="stroke:#181818;stroke-width:0.5;" width="15" x="377" y="419"/><rect fill="#F1F1F1" height="2" style="stroke:#181818;stroke-width:0.5;" width="4" x="375" y="421"/><rect fill="#F1F1F1" height="2" style="stroke:#181818;stroke-width:0.5;" width="4" x="375" y="425"/><text fill="#000000" font-family="sans-serif" font-size="14" lengthAdjust="spacing" textLength="63" x="309" y="446.9951">Postgres</text></g><!--entity AA--><g id="elem_AA"><rect fill="#F1F1F1" height="46.2969" rx="2.5" ry="2.5" style="stroke:#181818;stroke-width:0.5;" width="155" x="432" y="414"/><rect fill="#F1F1F1" height="10" style="stroke:#181818;stroke-width:0.5;" width="15" x="567" y="419"/><rect fill="#F1F1F1" height="2" style="stroke:#181818;stroke-width:0.5;" width="4" x="565" y="421"/><rect fill="#F1F1F1" height="2" style="stroke:#181818;stroke-width:0.5;" width="4" x="565" y="425"/><text fill="#000000" font-family="sans-serif" font-size="14" lengthAdjust="spacing" textLength="115" x="447" y="446.9951">Apache Artemis</text></g><!--entity GAIA--><g id="elem_GAIA"><rect fill="#F1F1F1" height="46.2969" rx="2.5" ry="2.5" style="stroke:#181818;stroke-width:0.5;" width="425" x="160" y="308"/><rect fill="#F1F1F1" height="10" style="stroke:#181818;stroke-width:0.5;" width="15" x="565" y="313"/><rect fill="#F1F1F1" height="2" style="stroke:#181818;stroke-width:0.5;" width="4" x="563" y="315"/><rect fill="#F1F1F1" height="2" style="stroke:#181818;stroke-width:0.5;" width="4" x="563" y="319"/><text fill="#000000" font-family="sans-serif" font-size="14" lengthAdjust="spacing" textLength="285" x="175" y="340.9951">Government Citizen Registry Backend (</text><text fill="#000000" font-family="sans-serif" font-size="14" font-weight="bold" lengthAdjust="spacing" textLength="95" x="460" y="340.9951">this project</text><text fill="#000000" font-family="sans-serif" font-size="14" lengthAdjust="spacing" textLength="5" x="555" y="340.9951">)</text></g><!--entity VISION--><g id="elem_VISION"><rect fill="#F1F1F1" height="46.2969" rx="2.5" ry="2.5" style="stroke:#181818;stroke-width:0.5;" width="147" x="164" y="187"/><rect fill="#F1F1F1" height="10" style="stroke:#181818;stroke-width:0.5;" width="15" x="291" y="192"/><rect fill="#F1F1F1" height="2" style="stroke:#181818;stroke-width:0.5;" width="4" x="289" y="194"/><rect fill="#F1F1F1" height="2" style="stroke:#181818;stroke-width:0.5;" width="4" x="289" y="198"/><text fill="#000000" font-family="sans-serif" font-size="14" lengthAdjust="spacing" textLength="107" x="179" y="219.9951">Vision Services</text></g><!--entity Enduser--><g id="elem_Enduser"><ellipse cx="37.5" cy="180.5" fill="#F1F1F1" rx="8" ry="8" style="stroke:#181818;stroke-width:0.5;"/><path d="M37.5,188.5 L37.5,215.5 M24.5,196.5 L50.5,196.5 M37.5,215.5 L24.5,230.5 M37.5,215.5 L50.5,230.5 " fill="none" style="stroke:#181818;stroke-width:0.5;"/><text fill="#000000" font-family="sans-serif" font-size="14" lengthAdjust="spacing" textLength="63" x="6" y="244.9951">End-user</text></g><!--entity CA--><g id="elem_CA"><rect fill="#F1F1F1" height="46.2969" rx="2.5" ry="2.5" style="stroke:#181818;stroke-width:0.5;" width="167" x="620" y="308"/><rect fill="#F1F1F1" height="10" style="stroke:#181818;stroke-width:0.5;" width="15" x="767" y="313"/><rect fill="#F1F1F1" height="2" style="stroke:#181818;stroke-width:0.5;" width="4" x="765" y="315"/><rect fill="#F1F1F1" height="2" style="stroke:#181818;stroke-width:0.5;" width="4" x="765" y="319"/><text fill="#000000" font-family="sans-serif" font-size="14" lengthAdjust="spacing" textLength="127" x="635" y="340.9951">2060 Cloud Agent</text></g><!--link MA to VS--><g id="link_MA_VS"><path d="M411.454,96.293 C417.012,121.306 424.6753,155.7909 430.2373,180.8169 " fill="none" id="MA-to-VS" style="stroke:#181818;stroke-width:1.0;"/><polygon fill="#181818" points="431.539,186.674,433.4911,177.0205,430.4542,181.7931,425.6817,178.7562,431.539,186.674" style="stroke:#181818;stroke-width:1.0;"/></g><!--link App to VISION--><g id="link_App_VISION"><path d="M259.4844,110.0704 C259.4081,110.414 259.3314,110.759 259.2544,111.1054 C259.1005,111.7982 258.9453,112.4963 258.7891,113.1995 C258.4766,114.6058 258.1596,116.0322 257.8389,117.4754 C252.7075,140.5665 247.919,162.1144 243.7495,180.8789 " fill="none" id="App-to-VISION" style="stroke:#181818;stroke-width:1.0;"/><polygon fill="#181818" points="242.448,186.736,248.305,178.8179,243.5326,181.855,240.4954,177.0826,242.448,186.736" style="stroke:#181818;stroke-width:1.0;"/></g><!--link VISION to GAIA--><g id="link_VISION_GAIA"><path d="M262.576,233.104 C286.672,254.344 318.3961,282.3074 342.5991,303.6424 " fill="none" id="VISION-to-GAIA" style="stroke:#181818;stroke-width:1.0;"/><polygon fill="#181818" points="347.1,307.61,342.9937,298.658,343.3492,304.3037,337.7036,304.6593,347.1,307.61" style="stroke:#181818;stroke-width:1.0;"/></g><!--link VISION to DS--><g id="link_VISION_DS"><path d="M205.286,233.138 C182.994,250.555 155.148,277.01 142.5,308 C127.784,344.056 145.5722,382.8234 161.7242,408.7146 " fill="none" id="VISION-to-DS" style="stroke:#181818;stroke-width:1.0;"/><polygon fill="#181818" points="164.9,413.8052,163.5301,404.0521,162.2535,409.563,156.7426,408.2864,164.9,413.8052" style="stroke:#181818;stroke-width:1.0;"/></g><!--link GAIA to DS--><g id="link_GAIA_DS"><path d="M331.782,354.056 C299.199,371.705 259.0027,393.4776 226.4357,411.1184 " fill="none" id="GAIA-to-DS" style="stroke:#181818;stroke-width:1.0;"/><polygon fill="#181818" points="221.16,413.9761,230.9788,413.2066,225.5564,411.5946,227.1684,406.1723,221.16,413.9761" style="stroke:#181818;stroke-width:1.0;"/></g><!--link App to Enduser--><g id="link_App_Enduser"><path d="M253.396,76.5574 C252.3563,76.7552 256.3666,76.0062 255.1679,76.2432 C252.7705,76.7172 250.0642,77.2706 247.0857,77.9077 C235.1717,80.4558 218.9019,84.3409 200.6188,89.8245 C164.0525,100.7918 119.433,118.153 85.5,144 C75.568,151.565 70.2663,156.8714 62.9756,166.9094 " fill="none" id="App-Enduser" style="stroke:#181818;stroke-width:1.0;"/><polygon fill="#181818" points="259.2923,75.4466,249.7073,73.1819,254.3787,76.3723,251.1884,81.0437,259.2923,75.4466" style="stroke:#181818;stroke-width:1.0;"/><polygon fill="#181818" points="59.4496,171.764,67.975,166.8327,62.3879,167.7185,61.5021,162.1314,59.4496,171.764" style="stroke:#181818;stroke-width:1.0;"/></g><!--link VS to GAIA--><g id="link_VS_GAIA"><path d="M421.7701,238.3883 C410.3471,259.6283 398.8581,280.9908 387.3831,302.3258 " fill="none" id="VS-GAIA" style="stroke:#181818;stroke-width:1.0;"/><polygon fill="#181818" points="424.612,233.104,416.8263,239.1358,422.2437,237.5076,423.872,242.925,424.612,233.104" style="stroke:#181818;stroke-width:1.0;"/><polygon fill="#181818" points="384.541,307.61,392.3269,301.5785,386.9094,303.2065,385.2813,297.789,384.541,307.61" style="stroke:#181818;stroke-width:1.0;"/></g><!--link VS to CA--><g id="link_VS_CA"><path d="M486.095,233.104 C533.901,254.411 600.3687,284.0354 648.2377,305.3704 " fill="none" id="VS-to-CA" style="stroke:#181818;stroke-width:1.0;"/><polygon fill="#181818" points="653.718,307.813,647.1259,300.4956,649.1511,305.7775,643.8691,307.8027,653.718,307.813" style="stroke:#181818;stroke-width:1.0;"/></g><!--reverse link MA to CA--><g id="link_MA_CA"><path d="M499.8714,92.0183 C536.8694,102.4363 572.657,117.518 603.5,144 C656.073,189.139 685.525,269.008 697.34,307.723 " fill="none" id="MA-backto-CA" style="stroke:#181818;stroke-width:1.0;"/><polygon fill="#181818" points="494.096,90.392,501.6749,96.6817,498.9088,91.7472,503.8433,88.9811,494.096,90.392" style="stroke:#181818;stroke-width:1.0;"/></g><!--link GAIA to PS--><g id="link_GAIA_PS"><path d="M366.774,354.056 C362.192,371.705 357.3058,390.5278 352.7258,408.1686 " fill="none" id="GAIA-to-PS" style="stroke:#181818;stroke-width:1.0;"/><polygon fill="#181818" points="351.218,413.9761,357.3513,406.2701,352.4745,409.1365,349.608,404.2597,351.218,413.9761" style="stroke:#181818;stroke-width:1.0;"/></g><!--link GAIA to AA--><g id="link_GAIA_AA"><path d="M401.554,354.056 C424.804,371.705 452.47,392.7075 475.709,410.3483 " fill="none" id="GAIA-to-AA" style="stroke:#181818;stroke-width:1.0;"/><polygon fill="#181818" points="480.488,413.9761,475.738,405.3484,476.5055,410.9529,470.9009,411.7205,480.488,413.9761" style="stroke:#181818;stroke-width:1.0;"/></g><!--SRC=[VP7DIiGm4CVlUOgX1z52OV7WIOJObRM7Qh5G3-8XjaCtsYOboIwe-2vzbZwP-MYbU_6KcV_C_EOZh3PIJMDq9vhae555qyZqD5hNUOIyN6wkDf1syj00RL6OLs0QKag8mjemqNO8qRtiPAjO3y-iwz306UIeDOhMybmw7GRu9W01biitRgi2BRJBAVaX9yYTFA8IlKs1b1l-XGAUiENQg4yeKHrvZP5dBjHPFC5MvIfXomo3qcwBStGxHmkfJQjG-ysAMQG3g_UMfWpsF8Ge3Q7_HhjbzGUA1ixZsEovXa79TxjK75zun8vcCwJYcaknJ1qQL5cPFJwuI-GKakG6xFpkTDuCiV1unRDMlbt7IOlj2g-TlNnbLGO_r9K-p_wZRMLbP_rL5oiIfRy0]--></g></svg>